<svg version="1.1" id="Layer_1" xmlns="http://www.w3.org/2000/svg" xmlns:xlink="http://www.w3.org/1999/xlink" x="0px" y="0px"
	 width="100%" viewBox="0 0 262 262" enable-background="new 0 0 262 262" xml:space="preserve">
<path fill="#FCFEFC" opacity="1.000000" stroke="none" 
	d="
M246.004730,263.000000 
	C164.003784,263.000000 82.503983,263.000000 1.003127,263.000000 
	C1.002085,175.668259 1.002085,88.336517 1.001042,1.003584 
	C88.331535,1.002389 175.663071,1.002389 262.995972,1.001194 
	C262.997314,88.331337 262.997314,175.662674 262.998657,262.997009 
	C257.501953,263.000000 252.003891,263.000000 246.004730,263.000000 
M37.519596,140.814865 
	C37.936138,139.776947 38.352680,138.739029 39.170219,137.004547 
	C40.910465,136.676208 42.643581,136.301941 44.392654,136.030472 
	C46.918938,135.638367 49.456795,135.320801 52.550060,134.952805 
	C52.650074,134.634155 52.750088,134.315491 52.996796,133.305115 
	C51.423550,130.017899 53.795361,130.090591 56.520535,130.240051 
	C56.673550,131.144592 56.826565,132.049133 56.399319,133.342773 
	C55.415829,135.505005 54.432339,137.667236 52.878117,140.124847 
	C53.339489,140.994781 53.753994,142.584610 54.269814,142.618179 
	C57.700649,142.841537 61.160255,142.849075 64.593201,142.641098 
	C65.366562,142.594238 66.071526,141.418320 66.949486,140.376419 
	C66.949486,140.376419 67.232933,140.078979 67.880547,140.140961 
	C68.639046,140.476593 69.397537,140.812225 70.879478,141.463104 
	C79.725739,141.445602 88.571999,141.428101 98.315041,141.650696 
	C98.615913,141.723083 98.916786,141.795471 100.109734,141.934113 
	C104.341476,141.573868 108.573212,141.213638 113.541687,140.735703 
	C114.624306,140.567032 116.192764,139.852386 116.713173,140.315491 
	C121.136086,144.251373 126.444824,142.716461 131.366257,142.639282 
	C133.602478,142.604218 135.810364,140.763931 138.570953,140.307602 
	C140.050858,140.497055 141.530762,140.686508 143.783447,140.926636 
	C144.801651,141.083450 145.819855,141.240265 147.189163,142.063416 
	C151.842743,141.828506 156.496338,141.593597 161.849197,141.181259 
	C162.568787,141.139160 163.288391,141.097061 164.528671,141.601257 
	C173.550507,141.987823 182.581589,142.233215 191.590149,142.822708 
	C195.859985,143.102127 199.002075,142.272232 200.465164,137.776306 
	C200.728745,136.966309 202.122131,136.523987 203.377975,136.346695 
	C203.937744,136.089554 204.497498,135.832428 205.721176,135.586166 
	C206.145889,135.709976 206.570587,135.833786 207.240570,136.719360 
	C213.472748,139.476959 221.098328,138.445099 222.390152,134.643188 
	C218.900604,134.799561 215.402145,134.956345 211.779480,135.118698 
	C212.771881,130.527603 211.711655,129.446320 207.408691,129.762756 
	C206.601257,129.822128 205.742661,129.185913 205.009460,128.455978 
	C205.009460,128.455978 205.155319,128.054626 205.697845,127.722443 
	C205.649734,126.977036 205.601608,126.231621 205.553482,125.486214 
	C205.043121,125.598999 204.532745,125.711784 203.085388,125.901978 
	C200.252243,125.907829 197.416214,125.833870 194.586517,125.935699 
	C188.139313,126.167702 181.695236,126.485924 174.851486,126.016983 
	C172.236282,125.997414 169.621094,125.977844 166.154846,126.096916 
	C164.433975,126.048759 162.713089,126.000603 160.456635,125.334671 
	C157.032822,125.532722 153.588821,125.562653 150.190216,125.970604 
	C145.759415,126.502441 141.364578,127.333961 136.999390,127.999886 
	C136.999390,127.999886 136.963608,128.045593 136.916595,127.307838 
	C135.337219,126.556374 133.782318,125.215187 132.174530,125.148460 
	C121.146126,124.690804 110.105934,124.255074 99.070915,124.287117 
	C86.052475,124.324913 73.036369,125.016319 60.017429,125.086143 
	C52.079811,125.128716 44.141022,124.412132 36.198532,124.265297 
	C30.205448,124.154510 28.263680,126.201797 27.505894,132.917877 
	C27.505894,132.917877 27.221319,133.132736 26.478510,133.199585 
	C25.877254,134.674408 25.275999,136.149216 24.516951,138.126602 
	C24.302586,138.400986 24.088221,138.675369 23.180799,139.047424 
	C21.062029,141.763489 22.858656,142.652832 25.166508,142.804962 
	C28.315620,143.012527 31.498669,142.977997 34.645496,142.749176 
	C35.399780,142.694336 36.068535,141.463181 37.000305,140.998169 
	C37.000305,140.998169 36.773792,140.776230 37.519596,140.814865 
M162.500000,121.996338 
	C118.011360,121.996292 73.522705,121.983566 29.034134,122.039780 
	C27.136505,122.042175 25.239683,122.682526 23.342485,123.025696 
	C26.236567,123.551376 28.748295,123.039024 31.260378,123.037277 
	C95.410614,122.992661 159.560898,122.976219 223.711136,123.028069 
	C233.347275,123.035858 242.982910,123.418182 252.619537,123.587692 
	C253.383896,123.601135 254.153717,123.303223 254.921005,123.150009 
	C254.505035,122.765442 254.089050,122.380882 253.673080,121.996323 
	C223.615387,121.996323 193.557693,121.996323 162.500000,121.996338 
M232.280914,128.384460 
	C229.390137,129.310013 226.499374,130.235550 223.608597,131.161102 
	C223.784790,131.798706 223.960983,132.436325 224.137177,133.073929 
	C227.310806,132.588013 230.498886,132.175186 233.645523,131.552780 
	C234.254379,131.432327 234.701294,130.493134 235.222916,129.931610 
	C234.481781,129.419434 233.740646,128.907242 232.280914,128.384460 
M249.908005,130.400696 
	C250.008499,129.748795 250.108994,129.096909 250.209473,128.445007 
	C249.672287,128.669754 249.135086,128.894501 248.597900,129.119247 
	C248.859436,129.637604 249.120972,130.155945 249.908005,130.400696 
M251.403503,126.481041 
	C251.403503,126.481041 251.522125,126.407288 251.403503,126.481041 
M22.410528,126.481331 
	C22.410528,126.481331 22.522825,126.413124 22.410528,126.481331 
z"/>
<path fill="#131213" opacity="1.000000" stroke="none" 
	d="
M112.804955,140.853409 
	C108.573212,141.213638 104.341476,141.573868 99.654785,141.549347 
	C101.738731,136.804825 104.214783,132.406128 106.871277,128.119232 
	C107.382645,127.293999 108.627907,126.360855 109.490173,126.402283 
	C118.653145,126.842590 127.807144,127.469803 136.963608,128.045593 
	C136.963608,128.045593 136.999390,127.999886 136.978149,128.309875 
	C137.103439,129.179016 137.249969,129.738174 137.235474,130.656097 
	C136.707397,131.709137 136.340363,132.403412 135.595398,133.173386 
	C133.226791,133.756409 131.236084,134.263702 128.768387,134.892578 
	C130.263931,137.020615 131.285400,138.474091 133.012436,140.931519 
	C126.908218,140.664749 121.923576,142.868790 117.411140,138.638214 
	C114.647331,136.047043 113.469040,138.274017 112.804955,140.853409 
z"/>
<path fill="#BDBDBD" opacity="1.000000" stroke="none" 
	d="
M136.940094,127.676712 
	C127.807144,127.469803 118.653145,126.842590 109.490173,126.402283 
	C108.627907,126.360855 107.382645,127.293999 106.871277,128.119232 
	C104.214783,132.406128 101.738731,136.804825 99.208740,141.516220 
	C98.916786,141.795471 98.615913,141.723083 97.916527,141.147247 
	C97.582352,138.357071 96.799644,137.160660 94.183876,137.334534 
	C91.693512,137.500046 89.170135,137.168625 86.661270,137.055679 
	C86.632812,136.656433 86.604362,136.257187 86.575905,135.857941 
	C87.720917,135.579849 88.865929,135.301773 90.450424,135.157715 
	C93.667603,134.713959 97.320808,137.108063 99.707939,132.314194 
	C96.412041,132.125458 93.740456,131.972458 91.076912,131.557678 
	C91.082138,130.947159 91.079330,130.598434 91.492691,130.158035 
	C95.841049,128.925781 100.974930,132.352905 104.930374,126.262413 
	C99.558945,126.262413 95.309685,126.263130 91.060425,126.262268 
	C77.418472,126.259514 77.415771,126.257950 71.332695,138.471542 
	C70.898727,139.342850 70.546341,140.254807 70.156029,141.147858 
	C69.397537,140.812225 68.639046,140.476593 67.570084,139.762115 
	C69.478920,135.390778 71.698227,131.398285 73.961121,127.327408 
	C65.705650,124.724205 62.422447,125.815750 58.127365,132.241837 
	C57.899612,132.582596 57.369129,132.721039 56.979576,132.953674 
	C56.826565,132.049133 56.673550,131.144592 56.261356,129.735931 
	C56.503227,128.489990 57.004276,127.748192 57.987129,126.293076 
	C51.928738,126.293076 46.367733,126.655014 40.875637,126.194710 
	C34.986897,125.701172 30.250452,126.727722 27.612621,132.577667 
	C28.263680,126.201797 30.205448,124.154510 36.198532,124.265297 
	C44.141022,124.412132 52.079811,125.128716 60.017429,125.086143 
	C73.036369,125.016319 86.052475,124.324913 99.070915,124.287117 
	C110.105934,124.255074 121.146126,124.690804 132.174530,125.148460 
	C133.782318,125.215187 135.337219,126.556374 136.940094,127.676712 
z"/>
<path fill="#171617" opacity="1.000000" stroke="none" 
	d="
M70.517754,141.305481 
	C70.546341,140.254807 70.898727,139.342850 71.332695,138.471542 
	C77.415771,126.257950 77.418472,126.259514 91.060425,126.262268 
	C95.309685,126.263130 99.558945,126.262413 104.930374,126.262413 
	C100.974930,132.352905 95.841049,128.925781 91.104324,130.153748 
	C90.166840,130.902237 90.033897,131.563370 89.917847,132.574356 
	C89.960144,133.624054 89.985542,134.323868 90.010948,135.023682 
	C88.865929,135.301773 87.720917,135.579849 86.575905,135.857941 
	C86.604362,136.257187 86.632812,136.656433 86.661270,137.055679 
	C89.170135,137.168625 91.693512,137.500046 94.183876,137.334534 
	C96.799644,137.160660 97.582352,138.357071 97.468140,141.027191 
	C88.571999,141.428101 79.725739,141.445602 70.517754,141.305481 
z"/>
<path fill="#121012" opacity="1.000000" stroke="none" 
	d="
M27.559258,132.747772 
	C30.250452,126.727722 34.986897,125.701172 40.875637,126.194710 
	C46.367733,126.655014 51.928738,126.293076 57.987129,126.293076 
	C57.004276,127.748192 56.503227,128.489990 55.941353,129.575470 
	C53.795361,130.090591 51.423550,130.017899 52.728966,133.764465 
	C52.207329,134.412048 52.050186,134.661255 51.989712,134.971420 
	C49.456795,135.320801 46.918938,135.638367 44.392654,136.030472 
	C42.643581,136.301941 40.910465,136.676208 38.669418,137.474731 
	C37.703674,138.888672 37.238731,139.832458 36.773792,140.776230 
	C36.773792,140.776230 37.000305,140.998169 36.439568,140.924377 
	C33.074085,140.965286 30.248985,141.320541 27.473799,141.085754 
	C26.222540,140.979919 25.070768,139.698044 23.873857,138.949753 
	C24.088221,138.675369 24.302586,138.400986 24.903881,137.741211 
	C25.934315,135.948135 26.577816,134.540436 27.221319,133.132736 
	C27.221319,133.132736 27.505894,132.917877 27.559258,132.747772 
z"/>
<path fill="#171617" opacity="1.000000" stroke="none" 
	d="
M135.973328,133.097672 
	C136.340363,132.403412 136.707397,131.709137 137.568832,130.822388 
	C145.706223,129.070770 153.349228,127.511597 160.992218,125.952438 
	C162.713089,126.000603 164.433975,126.048759 166.868622,126.277000 
	C169.131729,126.611252 170.681046,126.765419 172.224335,127.263458 
	C171.557785,128.786652 170.897293,129.965973 169.905701,131.126221 
	C169.042114,131.438400 168.509613,131.769669 167.564575,132.073929 
	C162.770493,132.111786 158.371414,131.977402 154.017883,132.360596 
	C152.677917,132.478531 149.860626,133.608093 153.455536,135.921265 
	C157.796600,136.562393 161.836578,136.921112 166.594833,137.343613 
	C165.565018,138.821075 164.786499,139.938019 164.007980,141.054947 
	C163.288391,141.097061 162.568787,141.139160 161.052612,141.092331 
	C155.783356,141.134628 151.310715,141.265869 146.838058,141.397095 
	C145.819855,141.240265 144.801651,141.083450 143.208435,140.612335 
	C141.097137,139.783661 139.560822,139.269302 137.750793,138.556412 
	C136.975815,136.604492 136.474564,134.851074 135.973328,133.097672 
z"/>
<path fill="#191819" opacity="1.000000" stroke="none" 
	d="
M205.155319,128.054626 
	C205.155319,128.054626 205.009460,128.455978 204.697052,128.760437 
	C203.957932,129.413116 203.531219,129.761353 202.649689,130.097870 
	C199.430801,129.748138 196.650055,129.043274 193.907043,129.168060 
	C190.718170,129.313141 187.351700,129.675171 184.447052,130.874695 
	C181.032486,132.284805 181.079391,135.427383 184.415115,137.032379 
	C186.218567,137.900116 188.528076,137.992462 190.600906,137.956161 
	C193.376205,137.907547 196.143387,137.395187 198.837128,137.445587 
	C196.971863,138.918701 195.240692,140.856750 193.384613,140.984863 
	C187.423370,141.396317 181.415741,141.168671 175.426468,141.124863 
	C173.070404,141.107620 170.715546,140.924713 168.122314,140.806381 
	C168.916016,138.696045 169.429611,137.330475 170.181641,135.721405 
	C170.836548,134.669418 171.253021,133.860962 171.917389,132.873093 
	C173.205353,130.821823 174.245407,128.949951 175.332275,126.994431 
	C175.379089,126.910774 175.249878,126.769119 175.249878,126.769119 
	C181.695236,126.485924 188.139313,126.167702 194.586517,125.935699 
	C197.416214,125.833870 200.252243,125.907829 203.638458,126.167496 
	C204.512802,126.973549 204.834061,127.514084 205.155319,128.054626 
z"/>
<path fill="#EDEFED" opacity="1.000000" stroke="none" 
	d="
M163.000000,121.996330 
	C193.557693,121.996323 223.615387,121.996323 253.673080,121.996323 
	C254.089050,122.380882 254.505035,122.765442 254.921005,123.150009 
	C254.153717,123.303223 253.383896,123.601135 252.619537,123.587692 
	C242.982910,123.418182 233.347275,123.035858 223.711136,123.028069 
	C159.560898,122.976219 95.410614,122.992661 31.260378,123.037277 
	C28.748295,123.039024 26.236567,123.551376 23.342485,123.025696 
	C25.239683,122.682526 27.136505,122.042175 29.034134,122.039780 
	C73.522705,121.983566 118.011360,121.996292 163.000000,121.996330 
z"/>
<path fill="#131213" opacity="1.000000" stroke="none" 
	d="
M56.689445,133.148224 
	C57.369129,132.721039 57.899612,132.582596 58.127365,132.241837 
	C62.422447,125.815750 65.705650,124.724205 73.961121,127.327408 
	C71.698227,131.398285 69.478920,135.390778 67.246277,139.731110 
	C67.232933,140.078979 66.949486,140.376419 66.426987,140.598175 
	C61.752609,140.489777 57.600731,140.159622 53.448853,139.829468 
	C54.432339,137.667236 55.415829,135.505005 56.689445,133.148224 
z"/>
<path fill="#ADADAD" opacity="1.000000" stroke="none" 
	d="
M169.943207,135.964920 
	C169.429611,137.330475 168.916016,138.696045 168.122314,140.806381 
	C170.715546,140.924713 173.070404,141.107620 175.426468,141.124863 
	C181.415741,141.168671 187.423370,141.396317 193.384613,140.984863 
	C195.240692,140.856750 196.971863,138.918701 198.915863,137.151550 
	C199.159256,135.897034 199.247025,135.300201 199.645233,134.629395 
	C200.974625,134.686050 201.993576,134.816650 203.017487,135.188599 
	C203.022446,135.429947 202.993912,135.911911 202.993912,135.911911 
	C202.122131,136.523987 200.728745,136.966309 200.465164,137.776306 
	C199.002075,142.272232 195.859985,143.102127 191.590149,142.822708 
	C182.581589,142.233215 173.550507,141.987823 164.268326,141.328094 
	C164.786499,139.938019 165.565018,138.821075 166.594833,137.343613 
	C161.836578,136.921112 157.796600,136.562393 153.874435,135.783096 
	C156.733932,135.259979 159.481232,135.001511 162.215668,135.100052 
	C164.798553,135.193146 167.367905,135.661575 169.943207,135.964920 
z"/>
<path fill="#B3B3B3" opacity="1.000000" stroke="none" 
	d="
M135.595398,133.173386 
	C136.474564,134.851074 136.975815,136.604492 137.748901,138.726410 
	C138.033173,139.310654 138.036636,139.526535 138.031113,139.742538 
	C135.810364,140.763931 133.602478,142.604218 131.366257,142.639282 
	C126.444824,142.716461 121.136086,144.251373 116.713173,140.315491 
	C116.192764,139.852386 114.624306,140.567032 113.173325,140.794556 
	C113.469040,138.274017 114.647331,136.047043 117.411140,138.638214 
	C121.923576,142.868790 126.908218,140.664749 133.012436,140.931519 
	C131.285400,138.474091 130.263931,137.020615 128.768387,134.892578 
	C131.236084,134.263702 133.226791,133.756409 135.595398,133.173386 
M133.288406,136.037674 
	C133.541428,136.621536 133.794449,137.205383 134.047470,137.789246 
	C134.369568,137.517517 134.691681,137.245789 135.013779,136.974060 
	C134.612213,136.505478 134.210632,136.036896 133.288406,136.037674 
z"/>
<path fill="#C9C9C9" opacity="1.000000" stroke="none" 
	d="
M203.104492,130.109589 
	C203.531219,129.761353 203.957932,129.413116 204.646179,128.967789 
	C205.742661,129.185913 206.601257,129.822128 207.408691,129.762756 
	C211.711655,129.446320 212.771881,130.527603 211.779480,135.118698 
	C215.402145,134.956345 218.900604,134.799561 222.390152,134.643188 
	C221.098328,138.445099 213.472748,139.476959 207.266479,136.008438 
	C208.604034,134.824707 209.915665,134.351913 211.227295,133.879120 
	C210.647171,133.212479 210.067047,132.545822 209.486923,131.879181 
	C207.360062,131.879181 205.233215,131.879181 203.073944,131.584869 
	C203.062515,130.896896 203.083511,130.503250 203.104492,130.109589 
z"/>
<path fill="#121012" opacity="1.000000" stroke="none" 
	d="
M203.106369,131.879181 
	C205.233215,131.879181 207.360062,131.879181 209.486923,131.879181 
	C210.067047,132.545822 210.647171,133.212479 211.227295,133.879120 
	C209.915665,134.351913 208.604034,134.824707 207.143860,135.627563 
	C206.570587,135.833786 206.145889,135.709976 205.182709,135.391571 
	C204.100342,135.113724 203.556427,135.030487 203.012512,134.947250 
	C201.993576,134.816650 200.974625,134.686050 199.239487,134.446671 
	C194.169998,134.680038 189.816727,135.022156 185.463440,135.364288 
	C185.418488,134.702881 185.373520,134.041473 185.328568,133.380066 
	C190.903793,130.012177 197.243591,132.895844 203.106369,131.879181 
z"/>
<path fill="#BDBDBD" opacity="1.000000" stroke="none" 
	d="
M160.724426,125.643555 
	C153.349228,127.511597 145.706223,129.070770 137.729858,130.463623 
	C137.249969,129.738174 137.103439,129.179016 136.955597,128.328201 
	C141.364578,127.333961 145.759415,126.502441 150.190216,125.970604 
	C153.588821,125.562653 157.032822,125.532722 160.724426,125.643555 
z"/>
<path fill="#9B9B9B" opacity="1.000000" stroke="none" 
	d="
M232.640213,128.389771 
	C233.740646,128.907242 234.481781,129.419434 235.222916,129.931610 
	C234.701294,130.493134 234.254379,131.432327 233.645523,131.552780 
	C230.498886,132.175186 227.310806,132.588013 224.137177,133.073929 
	C223.960983,132.436325 223.784790,131.798706 223.608597,131.161102 
	C226.499374,130.235550 229.390137,129.310013 232.640213,128.389771 
z"/>
<path fill="#BDBDBD" opacity="1.000000" stroke="none" 
	d="
M23.527328,138.998596 
	C25.070768,139.698044 26.222540,140.979919 27.473799,141.085754 
	C30.248985,141.320541 33.074085,140.965286 36.327728,140.811813 
	C36.068535,141.463181 35.399780,142.694336 34.645496,142.749176 
	C31.498669,142.977997 28.315620,143.012527 25.166508,142.804962 
	C22.858656,142.652832 21.062029,141.763489 23.527328,138.998596 
z"/>
<path fill="#ADADAD" opacity="1.000000" stroke="none" 
	d="
M53.163483,139.977173 
	C57.600731,140.159622 61.752609,140.489777 66.356232,140.791046 
	C66.071526,141.418320 65.366562,142.594238 64.593201,142.641098 
	C61.160255,142.849075 57.700649,142.841537 54.269814,142.618179 
	C53.753994,142.584610 53.339489,140.994781 53.163483,139.977173 
z"/>
<path fill="#ADADAD" opacity="1.000000" stroke="none" 
	d="
M147.013611,141.730255 
	C151.310715,141.265869 155.783356,141.134628 160.702972,141.181046 
	C156.496338,141.593597 151.842743,141.828506 147.013611,141.730255 
z"/>
<path fill="#BDBDBD" opacity="1.000000" stroke="none" 
	d="
M175.050690,126.393051 
	C175.249878,126.769119 175.379089,126.910774 174.948822,126.977051 
	C173.755814,127.002083 172.993103,126.960838 172.230377,126.919586 
	C170.681046,126.765419 169.131729,126.611252 167.294144,126.207687 
	C169.621094,125.977844 172.236282,125.997414 175.050690,126.393051 
z"/>
<path fill="#ADADAD" opacity="1.000000" stroke="none" 
	d="
M138.301025,140.025070 
	C138.036636,139.526535 138.033173,139.310654 138.022614,138.924927 
	C139.560822,139.269302 141.097137,139.783661 142.822052,140.586990 
	C141.530762,140.686508 140.050858,140.497055 138.301025,140.025070 
z"/>
<path fill="#BDBDBD" opacity="1.000000" stroke="none" 
	d="
M26.849915,133.166168 
	C26.577816,134.540436 25.934315,135.948135 24.982777,137.489929 
	C25.275999,136.149216 25.877254,134.674408 26.849915,133.166168 
z"/>
<path fill="#EDEFED" opacity="1.000000" stroke="none" 
	d="
M249.645264,130.537506 
	C249.120972,130.155945 248.859436,129.637604 248.597900,129.119247 
	C249.135086,128.894501 249.672287,128.669754 250.209473,128.445007 
	C250.108994,129.096909 250.008499,129.748795 249.645264,130.537506 
z"/>
<path fill="#ADADAD" opacity="1.000000" stroke="none" 
	d="
M205.426575,127.888535 
	C204.834061,127.514084 204.512802,126.973549 204.106964,126.128792 
	C204.532745,125.711784 205.043121,125.598999 205.553482,125.486214 
	C205.601608,126.231621 205.649734,126.977036 205.426575,127.888535 
z"/>
<path fill="#BDBDBD" opacity="1.000000" stroke="none" 
	d="
M37.146694,140.795547 
	C37.238731,139.832458 37.703674,138.888672 38.468918,137.822998 
	C38.352680,138.739029 37.936138,139.776947 37.146694,140.795547 
z"/>
<path fill="#C9C9C9" opacity="1.000000" stroke="none" 
	d="
M203.017487,135.188599 
	C203.556427,135.030487 204.100342,135.113724 204.850769,135.386139 
	C204.497498,135.832428 203.937744,136.089554 203.185944,136.129303 
	C202.993912,135.911911 203.022446,135.429947 203.017487,135.188599 
z"/>
<path fill="#EDEFED" opacity="1.000000" stroke="none" 
	d="
M251.462814,126.444168 
	C251.522125,126.407288 251.403503,126.481041 251.462814,126.444168 
z"/>
<path fill="#2A292A" opacity="1.000000" stroke="none" 
	d="
M52.269886,134.962112 
	C52.050186,134.661255 52.207329,134.412048 52.655617,134.110321 
	C52.750088,134.315491 52.650074,134.634155 52.269886,134.962112 
z"/>
<path fill="#EDEFED" opacity="1.000000" stroke="none" 
	d="
M22.466677,126.447227 
	C22.522825,126.413124 22.410528,126.481331 22.466677,126.447227 
z"/>
<path fill="#464646" opacity="1.000000" stroke="none" 
	d="
M90.450424,135.157730 
	C89.985542,134.323868 89.960144,133.624054 90.211304,132.477127 
	C90.681526,131.959854 90.875198,131.889664 91.068878,131.819473 
	C93.740456,131.972458 96.412041,132.125458 99.707939,132.314194 
	C97.320808,137.108063 93.667603,134.713959 90.450424,135.157730 
z"/>
<path fill="#9B9B9B" opacity="1.000000" stroke="none" 
	d="
M91.076912,131.557678 
	C90.875198,131.889664 90.681526,131.959854 90.194412,132.127258 
	C90.033897,131.563370 90.166840,130.902237 90.688156,130.245422 
	C91.079330,130.598434 91.082138,130.947159 91.076912,131.557678 
z"/>
<path fill="#E0E1E0" opacity="1.000000" stroke="none" 
	d="
M170.181641,135.721405 
	C167.367905,135.661575 164.798553,135.193146 162.215668,135.100052 
	C159.481232,135.001511 156.733932,135.259979 153.573349,135.500702 
	C149.860626,133.608093 152.677917,132.478531 154.017883,132.360596 
	C158.371414,131.977402 162.770493,132.111786 167.697937,132.270523 
	C168.712906,132.549164 169.181946,132.604172 170.144760,132.813248 
	C170.982178,132.995712 171.325851,133.024109 171.669495,133.052505 
	C171.253021,133.860962 170.836548,134.669418 170.181641,135.721405 
z"/>
<path fill="#ADADAD" opacity="1.000000" stroke="none" 
	d="
M171.917404,132.873093 
	C171.325851,133.024109 170.982178,132.995712 170.247223,132.559387 
	C169.982895,131.816055 170.109848,131.480682 170.236801,131.145294 
	C170.897293,129.965973 171.557785,128.786652 172.224335,127.263458 
	C172.993103,126.960838 173.755814,127.002083 174.901993,127.060707 
	C174.245407,128.949951 173.205353,130.821823 171.917404,132.873093 
z"/>
<path fill="#3A393A" opacity="1.000000" stroke="none" 
	d="
M169.905701,131.126221 
	C170.109848,131.480682 169.982895,131.816055 169.753479,132.405304 
	C169.181946,132.604172 168.712906,132.549164 168.110474,132.297546 
	C168.509613,131.769669 169.042114,131.438400 169.905701,131.126221 
z"/>
<path fill="#696A69" opacity="1.000000" stroke="none" 
	d="
M203.073944,131.584869 
	C197.243591,132.895844 190.903793,130.012177 185.328568,133.380066 
	C185.373520,134.041473 185.418488,134.702881 185.463440,135.364288 
	C189.816727,135.022156 194.169998,134.680038 198.929047,134.520630 
	C199.247025,135.300201 199.159256,135.897034 198.992767,136.787903 
	C196.143387,137.395187 193.376205,137.907547 190.600906,137.956161 
	C188.528076,137.992462 186.218567,137.900116 184.415115,137.032379 
	C181.079391,135.427383 181.032486,132.284805 184.447052,130.874695 
	C187.351700,129.675171 190.718170,129.313141 193.907043,129.168060 
	C196.650055,129.043274 199.430801,129.748138 202.649689,130.097870 
	C203.083511,130.503250 203.062515,130.896896 203.073944,131.584869 
z"/>
<path fill="#FCFEFC" opacity="1.000000" stroke="none" 
	d="
M133.548737,135.802994 
	C134.210632,136.036896 134.612213,136.505478 135.013779,136.974060 
	C134.691681,137.245789 134.369568,137.517517 134.047470,137.789246 
	C133.794449,137.205383 133.541428,136.621536 133.548737,135.802994 
z"/>
</svg>