<?xml version="1.0" encoding="UTF-8"?>
<svg version="1.1" xmlns="http://www.w3.org/2000/svg" width="215" height="26">
<path d="M0 0 C70.95 0 141.9 0 215 0 C215 8.58 215 17.16 215 26 C144.05 26 73.1 26 0 26 C0 17.42 0 8.84 0 0 Z " fill="#EAEBEA" transform="translate(0,0)"/>
<path d="M0 0 C11.22 0 22.44 0 34 0 C34 0.33 34 0.66 34 1 C33.22398438 0.95697754 32.44796875 0.91395508 31.6484375 0.86962891 C17.77526462 -0.40439641 17.77526462 -0.40439641 4.95214844 3.37304688 C1.71319369 7.07652755 0.26942328 11.30865309 -1 16 C-1.33 16.99 -1.66 17.98 -2 19 C2.95 19 7.9 19 13 19 C13.33 17.35 13.66 15.7 14 14 C15 13 15 13 18.16015625 12.90234375 C20.09181641 12.91974609 20.09181641 12.91974609 22.0625 12.9375 C23.35285156 12.94652344 24.64320312 12.95554687 25.97265625 12.96484375 C26.97167969 12.97644531 27.97070312 12.98804688 29 13 C28.67 14.98 28.34 16.96 28 19 C32.62 19 37.24 19 42 19 C42 18.34 42 17.68 42 17 C42.66 17 43.32 17 44 17 C44 17.66 44 18.32 44 19 C53.9 18.67 63.8 18.34 74 18 C74 18.66 74 19.32 74 20 C78.62 20 83.24 20 88 20 C88.66 18.68 89.32 17.36 90 16 C90.51046875 16.15339844 91.0209375 16.30679687 91.546875 16.46484375 C94.7749338 17.16905403 97.95418001 17.34888204 101.25 17.5625 C102.51328125 17.64628906 103.7765625 17.73007812 105.078125 17.81640625 C106.52445313 17.90728516 106.52445313 17.90728516 108 18 C107.505 17.38125 107.01 16.7625 106.5 16.125 C105 14 105 14 105 12 C107.97 11.505 107.97 11.505 111 11 C111.226875 11.598125 111.45375 12.19625 111.6875 12.8125 C113.49516414 15.82527356 114.74526785 16.56025007 118 18 C121.73599271 18.39099774 125.43550505 18.32751055 129.1875 18.25 C130.19748047 18.24484375 131.20746094 18.2396875 132.24804688 18.234375 C137.28793513 18.3801686 137.28793513 18.3801686 142 17 C142 17.66 142 18.32 142 19 C152.23 19 162.46 19 173 19 C173 18.34 173 17.68 173 17 C173.66 17 174.32 17 175 17 C175 15.68 175 14.36 175 13 C178.3 13 181.6 13 185 13 C185.33 11.68 185.66 10.36 186 9 C183.36 9 180.72 9 178 9 C178.99 6.03 179.98 3.06 181 0 C190.57 0 200.14 0 210 0 C210 7.92 210 15.84 210 24 C139.05 24 68.1 24 -5 24 C-5 9 -5 9 0 0 Z " fill="#F7F7F7" transform="translate(5,2)"/>
<path d="M0 0 C4.41665288 -0.02902168 8.83328123 -0.04680608 13.25 -0.0625 C15.13138672 -0.07506836 15.13138672 -0.07506836 17.05078125 -0.08789062 C18.85869141 -0.09272461 18.85869141 -0.09272461 20.703125 -0.09765625 C22.36843262 -0.10551147 22.36843262 -0.10551147 24.06738281 -0.11352539 C26.57157379 -0.01658493 28.6181156 0.26769724 31 1 C31 1.99 31 2.98 31 4 C32.02996094 3.7834375 33.05992188 3.566875 34.12109375 3.34375 C44.5382246 1.26870784 54.39420946 0.64160658 65 1 C64.67 2.65 64.34 4.3 64 6 C58.06 6.33 52.12 6.66 46 7 C46 7.66 46 8.32 46 9 C48.71378221 9.24478436 51.40546971 9.42160328 54.125 9.5625 C54.88554687 9.63791016 55.64609375 9.71332031 56.4296875 9.79101562 C58.90122802 9.88689435 60.66738215 9.8505446 63 9 C64.44596738 6.95665032 64.44596738 6.95665032 65.625 4.5 C67.04345703 2.02368164 67.04345703 2.02368164 69 0 C73.96040002 -1.15534428 78.82738483 -0.85174945 83.875 -0.5625 C85.24466027 -0.51730899 86.61446358 -0.47625232 87.984375 -0.43945312 C91.32656772 -0.33353857 94.66144958 -0.18575728 98 0 C97.67 1.65 97.34 3.3 97 5 C99.64 5 102.28 5 105 5 C104.34 6.65 103.68 8.3 103 10 C99.7 10 96.4 10 93 10 C93 11.32 93 12.64 93 14 C92.34 14 91.68 14 91 14 C91 14.66 91 15.32 91 16 C80 16 69 16 58 16 C57.29528564 16.02618408 56.59057129 16.05236816 55.86450195 16.0793457 C53.01410832 16.18401294 50.16407714 16.24823393 47.3125 16.3125 C46.33087891 16.35439453 45.34925781 16.39628906 44.33789062 16.43945312 C37.56439433 16.55302617 33.96358455 15.74143811 29 11 C29 10.01 29 9.02 29 8 C27.02 8.33 25.04 8.66 23 9 C23.495 9.61875 23.99 10.2375 24.5 10.875 C26 13 26 13 26 15 C23.75006641 15.02707139 21.50003905 15.04642829 19.25 15.0625 C17.99703125 15.07410156 16.7440625 15.08570313 15.453125 15.09765625 C12 15 12 15 9.671875 14.37109375 C9.12015625 14.24863281 8.5684375 14.12617188 8 14 C7.34 14.66 6.68 15.32 6 16 C2.9609375 16.1953125 2.9609375 16.1953125 -0.625 16.125 C-1.81351562 16.10695313 -3.00203125 16.08890625 -4.2265625 16.0703125 C-5.14179687 16.04710938 -6.05703125 16.02390625 -7 16 C-6.37373053 11.36560596 -6.37373053 11.36560596 -4.5625 9.59375 C-2.7588053 7.75398141 -2.14628347 6.23444246 -1.3125 3.8125 C-1.06113281 3.09707031 -0.80976562 2.38164063 -0.55078125 1.64453125 C-0.36902344 1.10183594 -0.18726562 0.55914062 0 0 Z " fill="#1E1D1E" transform="translate(87,5)"/>
<path d="M0 0 C2.66144846 0.05988259 5.29067704 0.16428454 7.9453125 0.31640625 C9.31497277 0.36159726 10.68477608 0.40265393 12.0546875 0.43945312 C15.39688022 0.54536768 18.73176208 0.69314897 22.0703125 0.87890625 C21.7403125 2.52890625 21.4103125 4.17890625 21.0703125 5.87890625 C23.7103125 5.87890625 26.3503125 5.87890625 29.0703125 5.87890625 C28.4103125 7.52890625 27.7503125 9.17890625 27.0703125 10.87890625 C23.7703125 10.87890625 20.4703125 10.87890625 17.0703125 10.87890625 C17.0703125 12.19890625 17.0703125 13.51890625 17.0703125 14.87890625 C16.4103125 14.87890625 15.7503125 14.87890625 15.0703125 14.87890625 C15.0703125 15.53890625 15.0703125 16.19890625 15.0703125 16.87890625 C4.0703125 16.87890625 -6.9296875 16.87890625 -17.9296875 16.87890625 C-18.65534912 16.8946167 -19.38101074 16.91032715 -20.12866211 16.92651367 C-23.04141072 16.98885644 -25.95403351 17.02771161 -28.8671875 17.06640625 C-29.88232422 17.09154297 -30.89746094 17.11667969 -31.94335938 17.14257812 C-32.91724609 17.15224609 -33.89113281 17.16191406 -34.89453125 17.171875 C-35.787771 17.18758545 -36.68101074 17.2032959 -37.60131836 17.21948242 C-39.9296875 16.87890625 -39.9296875 16.87890625 -42.9296875 13.87890625 C-34.6796875 13.87890625 -26.4296875 13.87890625 -17.9296875 13.87890625 C-17.5996875 13.21890625 -17.2696875 12.55890625 -16.9296875 11.87890625 C-21.5496875 11.87890625 -26.1696875 11.87890625 -30.9296875 11.87890625 C-31.2596875 10.55890625 -31.5896875 9.23890625 -31.9296875 7.87890625 C-28.65666831 4.90981027 -26.54902988 4.53535831 -22.1796875 4.69140625 C-21.19484375 4.71847656 -20.21 4.74554688 -19.1953125 4.7734375 C-18.44765625 4.80824219 -17.7 4.84304688 -16.9296875 4.87890625 C-16.9296875 5.53890625 -16.9296875 6.19890625 -16.9296875 6.87890625 C-23.3646875 7.37390625 -23.3646875 7.37390625 -29.9296875 7.87890625 C-29.9296875 8.53890625 -29.9296875 9.19890625 -29.9296875 9.87890625 C-27.21590529 10.12369061 -24.52421779 10.30050953 -21.8046875 10.44140625 C-21.04414063 10.51681641 -20.28359375 10.59222656 -19.5 10.66992188 C-17.02845948 10.7658006 -15.26230535 10.72945085 -12.9296875 9.87890625 C-11.48372012 7.83555657 -11.48372012 7.83555657 -10.3046875 5.37890625 C-7.56636061 0.59838136 -5.42273731 0.2001492 0 0 Z " fill="#1A191A" transform="translate(162.9296875,4.12109375)"/>
<path d="M0 0 C1.07354736 0.02094727 2.14709473 0.04189453 3.25317383 0.06347656 C4.41655273 0.07636719 5.57993164 0.08925781 6.77856445 0.10253906 C7.99350586 0.13605469 9.20844727 0.16957031 10.46020508 0.20410156 C11.68674805 0.22214844 12.91329102 0.24019531 14.17700195 0.25878906 C17.20968266 0.30599032 20.24080595 0.37182479 23.27270508 0.45410156 C22.94270508 1.77410156 22.61270508 3.09410156 22.27270508 4.45410156 C17.65270508 4.45410156 13.03270508 4.45410156 8.27270508 4.45410156 C8.27270508 5.11410156 8.27270508 5.77410156 8.27270508 6.45410156 C11.57270508 6.45410156 14.87270508 6.45410156 18.27270508 6.45410156 C18.27270508 7.44410156 18.27270508 8.43410156 18.27270508 9.45410156 C14.31270508 9.45410156 10.35270508 9.45410156 6.27270508 9.45410156 C6.27270508 10.11410156 6.27270508 10.77410156 6.27270508 11.45410156 C9.90270508 11.45410156 13.53270508 11.45410156 17.27270508 11.45410156 C16.94270508 13.10410156 16.61270508 14.75410156 16.27270508 16.45410156 C7.36270508 16.45410156 -1.54729492 16.45410156 -10.72729492 16.45410156 C-9.95758822 13.37527475 -9.24427673 11.21648406 -7.85229492 8.45410156 C-7.52487305 7.79410156 -7.19745117 7.13410156 -6.86010742 6.45410156 C-3.53813908 0.58910918 -3.53813908 0.58910918 0 0 Z " fill="#131213" transform="translate(60.727294921875,4.5458984375)"/>
<path d="M0 0 C1.16660156 0.00322266 2.33320313 0.00644531 3.53515625 0.00976562 C4.75847656 0.01814453 5.98179688 0.02652344 7.2421875 0.03515625 C8.47324219 0.03966797 9.70429688 0.04417969 10.97265625 0.04882812 C14.02088142 0.06064295 17.06901064 0.07711597 20.1171875 0.09765625 C19.7871875 1.41765625 19.4571875 2.73765625 19.1171875 4.09765625 C14.4971875 4.09765625 9.8771875 4.09765625 5.1171875 4.09765625 C5.1171875 4.75765625 5.1171875 5.41765625 5.1171875 6.09765625 C8.4171875 6.09765625 11.7171875 6.09765625 15.1171875 6.09765625 C14.7871875 7.41765625 14.4571875 8.73765625 14.1171875 10.09765625 C8.1771875 10.59265625 8.1771875 10.59265625 2.1171875 11.09765625 C1.4571875 12.74765625 0.7971875 14.39765625 0.1171875 16.09765625 C-4.8328125 16.09765625 -9.7828125 16.09765625 -14.8828125 16.09765625 C-13.99935944 11.68039096 -13.21264005 9.55077313 -10.9453125 5.84765625 C-10.15833984 4.54054688 -10.15833984 4.54054688 -9.35546875 3.20703125 C-6.75287618 -0.52082017 -4.30838426 -0.02091449 0 0 Z " fill="#232223" transform="translate(17.8828125,4.90234375)"/>
<path d="M0 0 C-0.33 1.65 -0.66 3.3 -1 5 C-2.65 5 -4.3 5 -6 5 C-6 4.34 -6 3.68 -6 3 C-7.77155654 3.11429397 -9.54226229 3.24183037 -11.3125 3.375 C-12.79169922 3.47941406 -12.79169922 3.47941406 -14.30078125 3.5859375 C-17.21528433 3.83865472 -17.21528433 3.83865472 -20 6 C-20 6.99 -20 7.98 -20 9 C-13.07 9.495 -13.07 9.495 -6 10 C-6.33 10.99 -6.66 11.98 -7 13 C-10.72910066 13.0582462 -14.45808364 13.09367917 -18.1875 13.125 C-19.24259766 13.14175781 -20.29769531 13.15851562 -21.38476562 13.17578125 C-22.91713867 13.18544922 -22.91713867 13.18544922 -24.48046875 13.1953125 C-25.88655396 13.21102295 -25.88655396 13.21102295 -27.32104492 13.22705078 C-30.21630812 12.98166713 -32.37062697 12.20521619 -35 11 C-35 9.35 -35 7.7 -35 6 C-24.34046311 -1.10635793 -12.32034918 -0.25998392 0 0 Z " fill="#090809" transform="translate(152,6)"/>
<path d="M0 0 C70.95 0 141.9 0 215 0 C215 0.33 215 0.66 215 1 C145.04 1 75.08 1 3 1 C2.67 2.65 2.34 4.3 2 6 C1.34 6.66 0.68 7.32 0 8 C0 5.36 0 2.72 0 0 Z " fill="#F8F7F8" transform="translate(0,0)"/>
<path d="M0 0 C4.29 0 8.58 0 13 0 C12.13108088 4.34459562 11.48920474 6.51511336 9 10 C8.34 10 7.68 10 7 10 C6.67 11.98 6.34 13.96 6 16 C1.38 16 -3.24 16 -8 16 C-6.90309312 11.61237247 -5.29817473 8.85500277 -3 5 C-2.34 5 -1.68 5 -1 5 C-0.67 3.35 -0.34 1.7 0 0 Z " fill="#1F1E1F" transform="translate(41,5)"/>
<path d="M0 0 C0.70664795 0.15847412 1.4132959 0.31694824 2.14135742 0.48022461 C5.04175234 1.00759166 7.7938127 1.2061855 10.73828125 1.31640625 C11.80498047 1.35830078 12.87167969 1.40019531 13.97070312 1.44335938 C15.07349609 1.48267578 16.17628906 1.52199219 17.3125 1.5625 C18.99569336 1.62727539 18.99569336 1.62727539 20.71289062 1.69335938 C23.47514569 1.79914787 26.2374863 1.90123672 29 2 C29.97136824 6.15606842 29.97616935 8.14646976 28 12 C27.01268258 13.34275169 26.01405257 14.67732273 25 16 C24.505 17.485 24.505 17.485 24 19 C28.29 19 32.58 19 37 19 C37 19.33 37 19.66 37 20 C32.38 20 27.76 20 23 20 C23 19.34 23 18.68 23 18 C22.34 17.67 21.68 17.34 21 17 C21.495 15.515 21.495 15.515 22 14 C18.37 14 14.74 14 11 14 C11 13.34 11 12.68 11 12 C14.96 12 18.92 12 23 12 C23 11.01 23 10.02 23 9 C19.7 9 16.4 9 13 9 C13 8.34 13 7.68 13 7 C17.62 7 22.24 7 27 7 C27.33 5.68 27.66 4.36 28 3 C23.76916493 2.90643905 19.54416798 2.91285821 15.3125 2.9375 C14.11431641 2.90978516 12.91613281 2.88207031 11.68164062 2.85351562 C8.23641484 2.90149927 5.31273975 3.04159552 2 4 C-0.606609 6.69713267 -1.7672309 9.49965562 -3 13 C-3.598125 14.175625 -4.19625 15.35125 -4.8125 16.5625 C-5.204375 17.366875 -5.59625 18.17125 -6 19 C-6.33 18.34 -6.66 17.68 -7 17 C-7.66 16.67 -8.32 16.34 -9 16 C-8 13 -8 13 -6.625 11.75 C-4.22035763 9.16038514 -3.298374 6.27684866 -2 3 C-6.29 3 -10.58 3 -15 3 C-15 2.67 -15 2.34 -15 2 C-10.05 2 -5.1 2 0 2 C0 1.34 0 0.68 0 0 Z " fill="#B4B4B4" transform="translate(56,2)"/>
<path d="M0 0 C0 0.66 0 1.32 0 2 C2.64 2 5.28 2 8 2 C7.34 3.65 6.68 5.3 6 7 C2.7 7 -0.6 7 -4 7 C-4 8.32 -4 9.64 -4 11 C-4.66 11 -5.32 11 -6 11 C-6 10.34 -6 9.68 -6 9 C-6.98742187 9.01160156 -7.97484375 9.02320313 -8.9921875 9.03515625 C-10.27351562 9.04417969 -11.55484375 9.05320312 -12.875 9.0625 C-14.15117187 9.07410156 -15.42734375 9.08570313 -16.7421875 9.09765625 C-20 9 -20 9 -22 8 C-22 6.35 -22 4.7 -22 3 C-15.08715353 -1.04654428 -7.74175497 -0.26901851 0 0 Z " fill="#6A6B6A" transform="translate(184,8)"/>
<path d="M0 0 C9.57 0 19.14 0 29 0 C29 1.65 29 3.3 29 5 C22.38384194 7.00060017 16.38496734 7.24246007 9.5 7.125 C8.48679688 7.11597656 7.47359375 7.10695313 6.4296875 7.09765625 C3.95287199 7.07429007 1.47656621 7.04153168 -1 7 C-0.67 4.69 -0.34 2.38 0 0 Z " fill="#FAFCFA" transform="translate(186,2)"/>
<path d="M0 0 C0.98484375 0.02707031 1.9696875 0.05414063 2.984375 0.08203125 C3.73203125 0.11683594 4.4796875 0.15164063 5.25 0.1875 C5.25 0.8475 5.25 1.5075 5.25 2.1875 C-1.185 2.6825 -1.185 2.6825 -7.75 3.1875 C-7.75 3.8475 -7.75 4.5075 -7.75 5.1875 C-1.81 5.1875 4.13 5.1875 10.25 5.1875 C9.92 6.5075 9.59 7.8275 9.25 9.1875 C8.59 9.1875 7.93 9.1875 7.25 9.1875 C7.25 9.8475 7.25 10.5075 7.25 11.1875 C17.15 10.8575 27.05 10.5275 37.25 10.1875 C37.25 10.8475 37.25 11.5075 37.25 12.1875 C26.25 12.1875 15.25 12.1875 4.25 12.1875 C3.16150757 12.21106567 3.16150757 12.21106567 2.05102539 12.23510742 C-0.86172322 12.29745019 -3.77434601 12.33630536 -6.6875 12.375 C-7.70263672 12.40013672 -8.71777344 12.42527344 -9.76367188 12.45117188 C-10.73755859 12.46083984 -11.71144531 12.47050781 -12.71484375 12.48046875 C-13.6080835 12.4961792 -14.50132324 12.51188965 -15.42163086 12.52807617 C-17.75 12.1875 -17.75 12.1875 -20.75 9.1875 C-12.5 9.1875 -4.25 9.1875 4.25 9.1875 C4.58 8.5275 4.91 7.8675 5.25 7.1875 C0.63 7.1875 -3.99 7.1875 -8.75 7.1875 C-9.08 5.8675 -9.41 4.5475 -9.75 3.1875 C-6.47698081 0.21840402 -4.36934238 -0.15604794 0 0 Z " fill="#727272" transform="translate(140.75,8.8125)"/>
<path d="M0 0 C9.9 0 19.8 0 30 0 C30 0.99 30 1.98 30 3 C26.7 3.66 23.4 4.32 20 5 C19.67 5.99 19.34 6.98 19 8 C16.2889923 9.35550385 14.08660831 9.16917207 11.0625 9.1875 C9.47115234 9.20876953 9.47115234 9.20876953 7.84765625 9.23046875 C5 9 5 9 2 7 C3.32 7 4.64 7 6 7 C6.33 5.68 6.66 4.36 7 3 C4.36 3 1.72 3 -1 3 C-0.67 2.01 -0.34 1.02 0 0 Z " fill="#F7F8F7" transform="translate(184,8)"/>
<path d="M0 0 C0.79728516 -0.00773438 1.59457031 -0.01546875 2.41601562 -0.0234375 C6.34431685 -0.01022202 8.35029969 0.02519979 11.6875 2.25 C10.33106952 6.05245265 8.88867594 8.73370322 5.6875 11.25 C0.08604107 12.19128042 -5.75443308 11.09794562 -11.3125 10.25 C-11.3125 9.59 -11.3125 8.93 -11.3125 8.25 C-7.69382441 7.0437748 -4.38743749 7.14183082 -0.625 7.1875 C0.07689453 7.19201172 0.77878906 7.19652344 1.50195312 7.20117188 C3.23050538 7.21293073 4.95901365 7.23086546 6.6875 7.25 C7.0175 5.6 7.3475 3.95 7.6875 2.25 C4.91632696 2.39080555 2.14567359 2.53743118 -0.625 2.6875 C-1.41068359 2.72681641 -2.19636719 2.76613281 -3.00585938 2.80664062 C-3.76318359 2.84853516 -4.52050781 2.89042969 -5.30078125 2.93359375 C-5.99727783 2.97025146 -6.69377441 3.00690918 -7.41137695 3.04467773 C-9.5341572 3.20581153 -9.5341572 3.20581153 -12.3125 4.25 C-13.70689664 4.31665376 -15.10419875 4.33538199 -16.5 4.3125 C-18.3871875 4.2815625 -18.3871875 4.2815625 -20.3125 4.25 C-14.09002351 0.10168234 -7.25376881 -0.07211701 0 0 Z " fill="#C6C5C6" transform="translate(144.3125,3.75)"/>
<path d="M0 0 C4.00186193 -0.02489435 8.00369328 -0.04295127 12.00561523 -0.05493164 C13.36434719 -0.05993113 14.72307385 -0.06673291 16.08178711 -0.07543945 C18.04538585 -0.08769842 20.00902541 -0.09273487 21.97265625 -0.09765625 C23.15093994 -0.10289307 24.32922363 -0.10812988 25.54321289 -0.11352539 C29.09357576 0.00307315 32.49542884 0.4344941 36 1 C36 1.33 36 1.66 36 2 C34.94941406 2.10957031 33.89882812 2.21914062 32.81640625 2.33203125 C25.14022419 3.18229915 18.28672155 4.3282021 11 7 C9.68 7 8.36 7 7 7 C7 6.01 7 5.02 7 4 C5.68 4 4.36 4 3 4 C3 3.34 3 2.68 3 2 C2.01 2 1.02 2 0 2 C0 1.34 0 0.68 0 0 Z " fill="#F3F4F3" transform="translate(111,2)"/>
<path d="M0 0 C9.24 0 18.48 0 28 0 C28.66 1.32 29.32 2.64 30 4 C29.67 4.66 29.34 5.32 29 6 C28.34 6 27.68 6 27 6 C26.71125 6.78375 26.4225 7.5675 26.125 8.375 C25 11 25 11 23 13 C23 12.34 23 11.68 23 11 C22.34 10.67 21.68 10.34 21 10 C21.33 9.01 21.66 8.02 22 7 C18.7 7 15.4 7 12 7 C12 6.34 12 5.68 12 5 C16.62 5 21.24 5 26 5 C26.33 3.68 26.66 2.36 27 1 C13.635 1.495 13.635 1.495 0 2 C0 1.34 0 0.68 0 0 Z " fill="#C8C8C8" transform="translate(11,4)"/>
<path d="M0 0 C0.268125 0.598125 0.53625 1.19625 0.8125 1.8125 C1.98493467 3.97224808 3.19369282 5.35790256 5 7 C3.68 6.67 2.36 6.34 1 6 C1 6.99 1 7.98 1 9 C-4.61 9 -10.22 9 -16 9 C-16.33 8.34 -16.66 7.68 -17 7 C-12.38 7 -7.76 7 -3 7 C-3.99 5.68 -4.98 4.36 -6 3 C-6 2.34 -6 1.68 -6 1 C-3 0 -3 0 0 0 Z " fill="#C2C2C2" transform="translate(116,13)"/>
<path d="M0 0 C1.98 0 3.96 0 6 0 C5.34 1.65 4.68 3.3 4 5 C0.7 5 -2.6 5 -6 5 C-6 6.32 -6 7.64 -6 9 C-6.66 9 -7.32 9 -8 9 C-8 8.34 -8 7.68 -8 7 C-11.96 7 -15.92 7 -20 7 C-20.33 6.34 -20.66 5.68 -21 5 C-18.69 5 -16.38 5 -14 5 C-14 4.34 -14 3.68 -14 3 C-11.72923158 2.97300275 -9.45837179 2.95360547 -7.1875 2.9375 C-5.92292969 2.92589844 -4.65835938 2.91429687 -3.35546875 2.90234375 C0 3 0 3 3 4 C3 3.01 3 2.02 3 1 C2.01 0.67 1.02 0.34 0 0 Z " fill="#6F6F6F" transform="translate(186,10)"/>
<path d="M0 0 C4.95 0 9.9 0 15 0 C15 0.33 15 0.66 15 1 C10.38 1 5.76 1 1 1 C1 1.66 1 2.32 1 3 C4.3 3 7.6 3 11 3 C10.67 4.32 10.34 5.64 10 7 C8.73542969 7.09087891 8.73542969 7.09087891 7.4453125 7.18359375 C6.34960938 7.26738281 5.25390625 7.35117188 4.125 7.4375 C2.48917969 7.55931641 2.48917969 7.55931641 0.8203125 7.68359375 C-1.94728971 7.83001703 -1.94728971 7.83001703 -4 9 C-3.67 8.01 -3.34 7.02 -3 6 C-2.34 5.67 -1.68 5.34 -1 5 C-0.67 3.35 -0.34 1.7 0 0 Z " fill="#414041" transform="translate(22,8)"/>
<path d="M0 0 C2.475 0.495 2.475 0.495 5 1 C4.01 1.33 3.02 1.66 2 2 C0.93254719 4.24915577 0.93254719 4.24915577 0 7 C-1.02341133 9.11310578 -2.06579132 11.21710892 -3.125 13.3125 C-3.66382813 14.38113281 -4.20265625 15.44976562 -4.7578125 16.55078125 C-5.37269531 17.76314453 -5.37269531 17.76314453 -6 19 C-6.33 18.34 -6.66 17.68 -7 17 C-7.66 16.67 -8.32 16.34 -9 16 C-8 13 -8 13 -6.625 11.75 C-4.22035763 9.16038514 -3.298374 6.27684866 -2 3 C-6.29 3 -10.58 3 -15 3 C-15 2.67 -15 2.34 -15 2 C-10.05 2 -5.1 2 0 2 C0 1.34 0 0.68 0 0 Z " fill="#CACACA" transform="translate(56,2)"/>
<path d="M0 0 C0.33 0.66 0.66 1.32 1 2 C0.34 3.65 -0.32 5.3 -1 7 C6.92 7.33 14.84 7.66 23 8 C23 8.66 23 9.32 23 10 C14.09 10 5.18 10 -4 10 C-3.06588007 6.2635203 -1.77257035 3.39100415 0 0 Z " fill="#575757" transform="translate(54,11)"/>
<path d="M0 0 C0.33 0.66 0.66 1.32 1 2 C4.3 2 7.6 2 11 2 C11 2.99 11 3.98 11 5 C7.04 5 3.08 5 -1 5 C-1 5.66 -1 6.32 -1 7 C2.63 7 6.26 7 10 7 C9.67 7.99 9.34 8.98 9 10 C9 9.34 9 8.68 9 8 C5.37 8 1.74 8 -2 8 C-2 6.68 -2 5.36 -2 4 C-1.34 3.67 -0.68 3.34 0 3 C0 2.01 0 1.02 0 0 Z " fill="#3D3D3D" transform="translate(68,9)"/>
<path d="M0 0 C7.59 0 15.18 0 23 0 C23 0.99 23 1.98 23 3 C15.08 3 7.16 3 -1 3 C-0.67 2.01 -0.34 1.02 0 0 Z " fill="#090709" transform="translate(166,11)"/>
<path d="M0 0 C1.28197266 -0.00386719 1.28197266 -0.00386719 2.58984375 -0.0078125 C4.88930852 0.11569746 6.85890348 0.48079313 9.0625 1.125 C9.0625 2.115 9.0625 3.105 9.0625 4.125 C3.4525 3.795 -2.1575 3.465 -7.9375 3.125 C-7.9375 2.465 -7.9375 1.805 -7.9375 1.125 C-5.0043642 0.14728807 -3.05571006 -0.00919011 0 0 Z " fill="#EEEFEE" transform="translate(140.9375,10.875)"/>
<path d="M0 0 C0 0.99 0 1.98 0 3 C-2.7110077 4.35550385 -4.91339169 4.16917207 -7.9375 4.1875 C-8.99839844 4.20167969 -10.05929688 4.21585938 -11.15234375 4.23046875 C-14 4 -14 4 -17 2 C-14.54187409 1.66507287 -12.08352273 1.3319903 -9.625 1 C-8.92632812 0.90460937 -8.22765625 0.80921875 -7.5078125 0.7109375 C-2.2265625 0 -2.2265625 0 0 0 Z " fill="#E0E0E0" transform="translate(203,13)"/>
<path d="M0 0 C1.49080078 0.02707031 1.49080078 0.02707031 3.01171875 0.0546875 C3.77097656 0.07789063 4.53023437 0.10109375 5.3125 0.125 C5.3125 0.785 5.3125 1.445 5.3125 2.125 C-1.1225 2.62 -1.1225 2.62 -7.6875 3.125 C-7.6875 3.785 -7.6875 4.445 -7.6875 5.125 C-4.0575 5.125 -0.4275 5.125 3.3125 5.125 C3.3125 5.455 3.3125 5.785 3.3125 6.125 C-0.9775 6.125 -5.2675 6.125 -9.6875 6.125 C-8.17442652 0.07270607 -5.70140255 -0.13415065 0 0 Z " fill="#828282" transform="translate(140.6875,8.875)"/>
<path d="M0 0 C5.61 0 11.22 0 17 0 C17 0.99 17 1.98 17 3 C13.7 3.33 10.4 3.66 7 4 C7 3.67 7 3.34 7 3 C4.36 3 1.72 3 -1 3 C-0.67 2.01 -0.34 1.02 0 0 Z " fill="#A9A8A9" transform="translate(184,8)"/>
<path d="M0 0 C8.91 0 17.82 0 27 0 C27.97435577 4.87177883 28.16856246 5.89114481 26 10 C25.01 10.495 25.01 10.495 24 11 C24.66 7.7 25.32 4.4 26 1 C17.42 1 8.84 1 0 1 C0 0.67 0 0.34 0 0 Z " fill="#A0A0A0" transform="translate(58,4)"/>
<path d="M0 0 C9.24 0 18.48 0 28 0 C28.66 1.32 29.32 2.64 30 4 C29.67 4.66 29.34 5.32 29 6 C28.01 5.67 27.02 5.34 26 5 C26.33 3.68 26.66 2.36 27 1 C13.635 1.495 13.635 1.495 0 2 C0 1.34 0 0.68 0 0 Z " fill="#AEAEAE" transform="translate(11,4)"/>
<path d="M0 0 C0.93457031 0.00322266 1.86914062 0.00644531 2.83203125 0.00976562 C3.80011719 0.01814453 4.76820313 0.02652344 5.765625 0.03515625 C6.74917969 0.03966797 7.73273438 0.04417969 8.74609375 0.04882812 C11.16933291 0.06059142 13.59244773 0.07702941 16.015625 0.09765625 C16.015625 0.42765625 16.015625 0.75765625 16.015625 1.09765625 C14.22705078 1.18853516 14.22705078 1.18853516 12.40234375 1.28125 C10.83592575 1.36566774 9.26952012 1.45031512 7.703125 1.53515625 C6.91744141 1.57447266 6.13175781 1.61378906 5.32226562 1.65429688 C4.56494141 1.69619141 3.80761719 1.73808594 3.02734375 1.78125 C2.33084717 1.81790771 1.63435059 1.85456543 0.91674805 1.89233398 C-1.2060322 2.05346778 -1.2060322 2.05346778 -3.984375 3.09765625 C-5.37877164 3.16431001 -6.77607375 3.18303824 -8.171875 3.16015625 C-10.0590625 3.12921875 -10.0590625 3.12921875 -11.984375 3.09765625 C-7.87313972 0.35683273 -4.87923376 -0.02975143 0 0 Z " fill="#696869" transform="translate(135.984375,4.90234375)"/>
<path d="M0 0 C2.475 0.495 2.475 0.495 5 1 C4.01 1.33 3.02 1.66 2 2 C2 2.66 2 3.32 2 4 C-3.61 3.67 -9.22 3.34 -15 3 C-15 2.67 -15 2.34 -15 2 C-10.05 2 -5.1 2 0 2 C0 1.34 0 0.68 0 0 Z " fill="#CFCFCF" transform="translate(56,2)"/>
<path d="M0 0 C2.64 0 5.28 0 8 0 C7.67 0.99 7.34 1.98 7 3 C4.69 3 2.38 3 0 3 C0 2.01 0 1.02 0 0 Z " fill="#1A191A" transform="translate(171,16)"/>
<path d="M0 0 C1.65 0.33 3.3 0.66 5 1 C5 1.99 5 2.98 5 4 C3.02 4 1.04 4 -1 4 C-0.67 2.68 -0.34 1.36 0 0 Z " fill="#A2A2A2" transform="translate(99,8)"/>
<path d="M0 0 C2.31 0 4.62 0 7 0 C7 0.99 7 1.98 7 3 C4.36 3 1.72 3 -1 3 C-0.67 2.01 -0.34 1.02 0 0 Z " fill="#949394" transform="translate(207,8)"/>
<path d="M0 0 C0 0.99 0 1.98 0 3 C-2.97 2.67 -5.94 2.34 -9 2 C-5.23312136 0.11656068 -3.97041037 -0.22057835 0 0 Z " fill="#B8B8B8" transform="translate(195,14)"/>
<path d="M0 0 C0.99 0.33 1.98 0.66 3 1 C1.68 3.31 0.36 5.62 -1 8 C-1.33 7.34 -1.66 6.68 -2 6 C-4.02463255 5.34786708 -4.02463255 5.34786708 -6 5 C-4.35 5 -2.7 5 -1 5 C-0.67 3.35 -0.34 1.7 0 0 Z " fill="#A1A1A1" transform="translate(152,6)"/>
<path d="M0 0 C0 0.99 0 1.98 0 3 C-3.63 2.67 -7.26 2.34 -11 2 C-11 1.67 -11 1.34 -11 1 C-7.26513121 0.4254048 -3.78706732 0 0 0 Z " fill="#131313" transform="translate(189,11)"/>
<path d="M0 0 C1.98 0 3.96 0 6 0 C6.33 0.99 6.66 1.98 7 3 C4.36 3 1.72 3 -1 3 C-0.67 2.01 -0.34 1.02 0 0 Z " fill="#D5D5D5" transform="translate(201,9)"/>
<path d="M0 0 C0.66 0.33 1.32 0.66 2 1 C1.34 2.98 0.68 4.96 0 7 C-0.33 6.34 -0.66 5.68 -1 5 C-1.66 4.67 -2.32 4.34 -3 4 C-2.67 3.01 -2.34 2.02 -2 1 C-1.34 0.67 -0.68 0.34 0 0 Z " fill="#BABABA" transform="translate(50,14)"/>
<path d="M0 0 C0.33 0.66 0.66 1.32 1 2 C3.31 2 5.62 2 8 2 C8 2.33 8 2.66 8 3 C6.576875 3.2165625 6.576875 3.2165625 5.125 3.4375 C2.1065506 3.82935399 2.1065506 3.82935399 0 5 C-0.66 4.67 -1.32 4.34 -2 4 C-2 3.34 -2 2.68 -2 2 C-1.34 2 -0.68 2 0 2 C0 1.34 0 0.68 0 0 Z " fill="#494A49" transform="translate(164,12)"/>
</svg>
